<?xml version="1.0" encoding="utf-8"?>
<!-- Generator: Adobe Illustrator 16.0.0, SVG Export Plug-In . SVG Version: 6.00 Build 0)  -->
<!DOCTYPE svg PUBLIC "-//W3C//DTD SVG 1.1//EN" "http://www.w3.org/Graphics/SVG/1.1/DTD/svg11.dtd">
<svg version="1.1" id="Layer_1" xmlns="http://www.w3.org/2000/svg" xmlns:xlink="http://www.w3.org/1999/xlink" x="0px" y="0px"
	 width="568px" height="571px" viewBox="0 0 568 571" enable-background="new 0 0 568 571" xml:space="preserve">
<g>
	<path fill-rule="evenodd" clip-rule="evenodd" d="M284.346,12.714c121.724,0.014,228.71,83.828,259.585,203.226
		c5.195,20.09,8.583,40.539,8.97,61.159c2.596,138.478-91.68,251.598-219.13,275.65c-16.933,3.195-34.407,5.489-51.567,5.134
		c-53.485-1.111-103.254-15.757-147.381-46.6c-67.827-47.408-106.721-112.646-116.862-194.7
		C3.271,197.736,69.483,82.376,179.432,34.568C212.868,20.03,247.938,13.102,284.346,12.714z M216.377,328.051
		c2.142,0,3.938-0.001,5.734,0c28.655,0.015,57.311,0.087,85.966,0.025c22.056-0.047,43.917-1.924,65.243-7.955
		c27.045-7.649,50.989-20.472,68.865-42.777c19.581-24.434,27.455-52.988,27.396-83.77c-0.029-15.552-2.653-30.93-11.058-44.558
		c-12.655-20.518-32.213-30.807-55.149-33.951c-24.529-3.362-49.293-6.106-74.015-6.741c-42.446-1.091-84.94-0.293-127.413-0.421
		c-3.883-0.012-4.581,2.018-5.176,5.104c-4.951,25.651-10.106,51.264-14.949,76.936c-0.771,4.09-2.27,5.515-6.469,5.275
		c-6.475-0.368-12.988-0.082-19.485-0.044c-10.5,0.063-10.591,0.055-12.61,10.376c-2.031,10.383-3.857,20.807-5.906,31.938
		c12.265,0,23.795,0,35.836,0c-14.126,72.145-28.116,143.595-42.058,214.799c0.972,0.558,1.251,0.857,1.535,0.861
		c18.984,0.247,37.968,0.539,56.952,0.53c1.166,0,3.095-2.246,3.381-3.699c5.169-26.289,10.136-52.618,15.155-78.937
		C210.857,356.854,213.579,342.671,216.377,328.051z"/>
	<path fill-rule="evenodd" clip-rule="evenodd" d="M228.208,268.413c2.029-10.407,4.018-20.609,6.063-31.104
		c11.742,0,23.044,0,34.346,0c16.153,0.001,32.308-0.022,48.462,0.029c2.337,0.008,4.151-0.11,4.675-3.049
		c2.273-12.744,4.692-25.463,7.192-38.909c-28.798,0-57.148,0-86.473,0c1.73-9.022,3.201-17.27,5.042-25.434
		c0.194-0.861,2.557-1.727,3.928-1.749c9.324-0.151,18.652-0.166,27.978-0.059c26.137,0.304,52.278,0.502,78.407,1.163
		c6.929,0.176,13.904,1.478,20.709,2.954c14.315,3.105,23.21,12.727,25.615,27.203c3.751,22.572-6.361,39.392-22.759,53.286
		c-13.46,11.404-29.811,15.591-46.896,15.849c-34.467,0.521-68.947,0.191-103.421,0.196
		C230.271,268.791,229.465,268.585,228.208,268.413z"/>
</g>
</svg>
